<svg width="41" height="40" viewBox="0 0 41 40" fill="none" xmlns="http://www.w3.org/2000/svg">
<path d="M16.605 28.3333H24.3933M20.5 5V6.66667M31.1067 9.39333L29.9283 10.5717M35.5 20H33.8333M7.16667 20H5.5M11.0717 10.5717L9.89333 9.39333M14.6067 25.8933C13.4414 24.7278 12.648 23.2429 12.3266 21.6265C12.0053 20.01 12.1704 18.3346 12.8012 16.812C13.432 15.2894 14.5001 13.9881 15.8705 13.0725C17.2408 12.1569 18.8519 11.6682 20.5 11.6682C22.1481 11.6682 23.7592 12.1569 25.1295 13.0725C26.4999 13.9881 27.568 15.2894 28.1988 16.812C28.8296 18.3346 28.9947 20.01 28.6734 21.6265C28.352 23.2429 27.5586 24.7278 26.3933 25.8933L25.48 26.805C24.9578 27.3272 24.5437 27.9472 24.2611 28.6296C23.9786 29.3119 23.8332 30.0432 23.8333 30.7817V31.6667C23.8333 32.5507 23.4821 33.3986 22.857 34.0237C22.2319 34.6488 21.3841 35 20.5 35C19.6159 35 18.7681 34.6488 18.143 34.0237C17.5179 33.3986 17.1667 32.5507 17.1667 31.6667V30.7817C17.1667 29.29 16.5733 27.8583 15.52 26.805L14.6067 25.8933Z" stroke="#FB9600" stroke-width="2" stroke-linecap="round" stroke-linejoin="round"/>
</svg>
