<svg width="31" height="32" viewBox="0 0 31 32" fill="none" xmlns="http://www.w3.org/2000/svg">
<path d="M28.7641 13.6241C29.9207 20.9736 24.9003 27.8693 17.5507 29.0259C10.2011 30.1825 3.3055 25.162 2.1489 17.8125C0.992297 10.4629 6.0127 3.56727 13.3623 2.41067C20.7119 1.25407 27.6075 6.27447 28.7641 13.6241ZM4.55964 17.4331C5.50672 23.4513 11.1532 27.5622 17.1713 26.6151C23.1895 25.668 27.3004 20.0216 26.3533 14.0034C25.4063 7.98527 19.7598 3.87434 13.7417 4.82142C7.7235 5.76849 3.61257 11.4149 4.55964 17.4331Z" fill="#7FE2BE"/>
<path d="M7.75676 4.66422C5.47997 6.25013 3.74842 8.50039 2.79874 11.1075C1.84907 13.7146 1.72759 16.5514 2.45093 19.2301L4.80696 18.5939C4.21466 16.4004 4.31413 14.0776 5.09177 11.9428C5.8694 9.80795 7.28727 7.96533 9.15161 6.66672L7.75676 4.66422Z" fill="#3DB489"/>
<path d="M2.33543 18.7704C3.08401 21.9885 4.98917 24.8193 7.68863 26.7245C10.3881 28.6297 13.6936 29.4764 16.9766 29.1036L16.7012 26.6788C14.013 26.984 11.3063 26.2907 9.09583 24.7307C6.88538 23.1706 5.32535 20.8526 4.71238 18.2175L2.33543 18.7704Z" fill="#10724F"/>
<path d="M19.8188 28.6809C19.4032 29.0633 18.8585 29.343 18.2591 29.4817C17.6596 29.6204 17.0346 29.6114 16.4694 29.4559C15.9042 29.3005 15.4264 29.0061 15.101 28.613C14.7757 28.2199 14.6188 27.7472 14.6517 27.2595C14.6846 26.7718 14.9057 26.2928 15.2849 25.888C15.6641 25.4831 16.1828 25.1721 16.7703 24.9974C17.3578 24.8226 17.9854 24.7927 18.5675 24.9117C19.1495 25.0307 19.6577 25.2928 20.0225 25.6622L17.6272 27.2098L19.8188 28.6809Z" fill="#10724F"/>
<path d="M17.5803 25.9909C17.5738 25.9499 17.5585 25.9109 17.5354 25.8764C17.5124 25.842 17.4821 25.813 17.4466 25.7915C17.4112 25.77 17.3715 25.7564 17.3303 25.7518C17.2891 25.7472 17.2474 25.7517 17.2081 25.7648C17.1688 25.778 17.1328 25.7995 17.1027 25.828C17.0726 25.8565 17.0491 25.8912 17.0337 25.9297C17.0184 25.9682 17.0117 26.0096 17.014 26.051C17.0163 26.0924 17.0275 26.1328 17.0471 26.1693L17.2986 26.0352L17.5803 25.9909Z" fill="black"/>
</svg>
