<svg width="40" height="40" viewBox="0 0 40 40" fill="none" xmlns="http://www.w3.org/2000/svg">
<g id="ico-search">
<rect id="btn-search" width="40" height="40" rx="20" fill="#FB9600"/>
<path id="ico-search_2" d="M12 18.7061C12 19.6318 12.1729 20.502 12.5186 21.3164C12.8643 22.125 13.3447 22.8369 13.96 23.4521C14.5752 24.0674 15.2871 24.5479 16.0957 24.8936C16.9043 25.2393 17.7715 25.4121 18.6973 25.4121C19.4062 25.4121 20.0801 25.3066 20.7188 25.0957C21.3574 24.8848 21.9463 24.5918 22.4854 24.2168L26.4404 28.1807C26.5459 28.2861 26.6689 28.3623 26.8096 28.4092C26.9502 28.4619 27.0938 28.4883 27.2402 28.4883C27.4512 28.4883 27.6387 28.4385 27.8027 28.3389C27.9668 28.2451 28.0957 28.1133 28.1895 27.9434C28.2832 27.7793 28.3301 27.5889 28.3301 27.3721C28.3301 27.2314 28.3037 27.0938 28.251 26.959C28.1982 26.8242 28.1221 26.7012 28.0225 26.5898L24.0938 22.6523C24.5098 22.1016 24.832 21.4922 25.0605 20.8242C25.2891 20.1504 25.4033 19.4443 25.4033 18.7061C25.4033 17.7803 25.2305 16.9131 24.8848 16.1045C24.5391 15.29 24.0586 14.5781 23.4434 13.9688C22.8281 13.3535 22.1162 12.873 21.3076 12.5273C20.499 12.1758 19.6289 12 18.6973 12C17.7715 12 16.9043 12.1758 16.0957 12.5273C15.2871 12.873 14.5752 13.3535 13.96 13.9688C13.3447 14.5781 12.8643 15.29 12.5186 16.1045C12.1729 16.9131 12 17.7803 12 18.7061ZM13.5996 18.7061C13.5996 18.0029 13.7314 17.3438 13.9951 16.7285C14.2588 16.1074 14.625 15.5654 15.0938 15.1025C15.5625 14.6338 16.1045 14.2676 16.7197 14.0039C17.335 13.7402 17.9941 13.6084 18.6973 13.6084C19.4004 13.6084 20.0596 13.7402 20.6748 14.0039C21.2959 14.2676 21.8379 14.6338 22.3008 15.1025C22.7695 15.5654 23.1357 16.1074 23.3994 16.7285C23.6631 17.3438 23.7949 18.0029 23.7949 18.7061C23.7949 19.4092 23.6631 20.0713 23.3994 20.6924C23.1357 21.3076 22.7695 21.8496 22.3008 22.3184C21.8379 22.7812 21.2959 23.1445 20.6748 23.4082C20.0596 23.6719 19.4004 23.8037 18.6973 23.8037C17.9941 23.8037 17.335 23.6719 16.7197 23.4082C16.1045 23.1445 15.5625 22.7812 15.0938 22.3184C14.625 21.8496 14.2588 21.3076 13.9951 20.6924C13.7314 20.0713 13.5996 19.4092 13.5996 18.7061Z" fill="white"/>
</g>
</svg>
