<svg width="189" height="193" viewBox="0 0 189 193" fill="none" xmlns="http://www.w3.org/2000/svg">
<path d="M189 94.5C189 146.691 146.691 189 94.5 189C42.3091 189 0 146.691 0 94.5C0 42.3091 42.3091 0 94.5 0C146.691 0 189 42.3091 189 94.5ZM17.1192 94.5C17.1192 137.236 51.7638 171.881 94.5 171.881C137.236 171.881 171.881 137.236 171.881 94.5C171.881 51.7638 137.236 17.1192 94.5 17.1192C51.7638 17.1192 17.1192 51.7638 17.1192 94.5Z" fill="#7FE2BE"/>
<path d="M53.1985 9.5033C35.6918 18.0101 21.2389 31.7153 11.815 48.7459C2.39105 65.7765 -1.54421 85.3016 0.547 104.653L17.5671 102.814C15.8548 86.9679 19.0771 70.9799 26.7939 57.0345C34.5106 43.0891 46.3453 31.8667 60.6805 24.9009L53.1985 9.5033Z" fill="#3DB489"/>
<path d="M0.247964 101.341C1.92591 124.458 12.0409 146.152 28.6695 162.298C45.298 178.444 67.2805 187.916 90.4367 188.913L91.1728 171.809C72.2115 170.993 54.2113 163.237 40.5951 150.016C26.9788 136.795 18.6962 119.031 17.3223 100.102L0.247964 101.341Z" fill="#10724F"/>
<path d="M110.583 189.084C107.286 191.281 103.206 192.625 98.9013 192.932C94.5961 193.24 90.2751 192.496 86.528 190.802C82.7809 189.108 79.7904 186.547 77.9647 183.468C76.139 180.39 75.5671 176.943 76.327 173.6C77.0869 170.256 79.1417 167.178 82.2107 164.786C85.2798 162.394 89.2136 160.804 93.4752 160.234C97.7367 159.664 102.118 160.141 106.022 161.6C109.926 163.06 113.161 165.43 115.286 168.388L97 176.5L110.583 189.084Z" fill="#10724F"/>
<circle cx="96" cy="168" r="2" fill="black"/>
</svg>
